<svg width="1440" height="1120" viewBox="0 0 1440 1120" fill="none" xmlns="http://www.w3.org/2000/svg">
<path d="M0 71.0985L48 58.5914C96 46.0843 192 21.0702 288 25.2071C384 29.7289 480 62.4398 576 96.1126C672 129.786 768 162.496 864 162.785C960 162.496 1056 129.786 1152 112.757C1248 96.1127 1344 96.1127 1440 108.62C1536 121.127 1632 146.141 1728 137.771C1824 129.786 1920 87.4539 2016 91.9757C2112 96.1126 2208 146.141 2304 137.771C2400 129.786 2496 62.4398 2592 29.4403C2688 -3.94396 2784 -3.94396 2880 8.56312C2976 21.0702 3072 46.0843 3168 46.0843C3264 46.0843 3360 21.0702 3456 37.7142C3552 54.7431 3648 112.468 3744 146.141C3840 179.814 3936 187.511 4032 183.662C4128 179.814 4224 162.496 4320 150.278C4416 137.482 4512 129.786 4608 112.757C4704 96.1127 4800 71.0985 4896 83.6056C4992 96.1127 5088 146.141 5184 167.018C5280 187.51 5376 179.814 5472 162.785C5568 146.141 5664 121.127 5760 129.497C5856 137.482 5952 179.814 6048 167.018C6144 154.8 6240 87.4539 6336 83.6056C6432 79.7572 6528 137.482 6624 167.018C6720 196.169 6816 196.169 6864 196.169H6912V246.198H6864C6816 246.198 6720 246.198 6624 246.198C6528 246.198 6432 246.198 6336 246.198C6240 246.198 6144 246.198 6048 246.198C5952 246.198 5856 246.198 5760 246.198C5664 246.198 5568 246.198 5472 246.198C5376 246.198 5280 246.198 5184 246.198C5088 246.198 4992 246.198 4896 246.198C4800 246.198 4704 246.198 4608 246.198C4512 246.198 4416 246.198 4320 246.198C4224 246.198 4128 246.198 4032 246.198C3936 246.198 3840 246.198 3744 246.198C3648 246.198 3552 246.198 3456 246.198C3360 246.198 3264 246.198 3168 246.198C3072 246.198 2976 246.198 2880 246.198C2784 246.198 2688 246.198 2592 246.198C2496 246.198 2400 246.198 2304 246.198C2208 246.198 2112 246.198 2016 246.198C1920 246.198 1824 246.198 1728 246.198C1632 246.198 1536 246.198 1440 246.198C1344 246.198 1248 246.198 1152 246.198C1056 246.198 960 246.198 864 246.198C768 246.198 672 246.198 576 246.198C480 246.198 384 246.198 288 246.198C192 246.198 96 246.198 48 246.198H0V71.0985Z" fill="#CB997E"/>
<path d="M0 236H1440V1120H0V236Z" fill="#CB997E"/>
</svg>
