<svg width="1440" height="620" viewBox="0 0 1440 620" fill="none" xmlns="http://www.w3.org/2000/svg">
<path d="M-3 181H1459V620H-3V181Z" fill="#2C3E50"/>
<path d="M-45 52.3286L3 43.0095C51 33.6904 147 15.0523 243 18.1347C339 21.5039 435 45.8769 531 70.9668C627 96.0567 723 120.43 819 120.645C915 120.43 1011 96.0567 1107 83.3684C1203 70.9668 1299 70.9668 1395 80.2859C1491 89.605 1587 108.243 1683 102.007C1779 96.0567 1875 64.5151 1971 67.8843C2067 70.9668 2163 108.243 2259 102.007C2355 96.0567 2451 45.8769 2547 21.2889C2643 -3.58593 2739 -3.58593 2835 5.73317C2931 15.0523 3027 33.6904 3123 33.6904C3219 33.6904 3315 15.0523 3411 27.4538C3507 40.1421 3603 83.1533 3699 108.243C3795 133.333 3891 139.068 3987 136.2C4083 133.333 4179 120.43 4275 111.326C4371 101.791 4467 96.0567 4563 83.3684C4659 70.9668 4755 52.3286 4851 61.6477C4947 70.9668 5043 108.243 5139 123.799C5235 139.068 5331 133.333 5427 120.645C5523 108.243 5619 89.605 5715 95.8416C5811 101.791 5907 133.333 6003 123.799C6099 114.695 6195 64.5151 6291 61.6477C6387 58.7803 6483 101.791 6579 123.799C6675 145.52 6771 145.52 6819 145.52H6867V182.796H6819C6771 182.796 6675 182.796 6579 182.796C6483 182.796 6387 182.796 6291 182.796C6195 182.796 6099 182.796 6003 182.796C5907 182.796 5811 182.796 5715 182.796C5619 182.796 5523 182.796 5427 182.796C5331 182.796 5235 182.796 5139 182.796C5043 182.796 4947 182.796 4851 182.796C4755 182.796 4659 182.796 4563 182.796C4467 182.796 4371 182.796 4275 182.796C4179 182.796 4083 182.796 3987 182.796C3891 182.796 3795 182.796 3699 182.796C3603 182.796 3507 182.796 3411 182.796C3315 182.796 3219 182.796 3123 182.796C3027 182.796 2931 182.796 2835 182.796C2739 182.796 2643 182.796 2547 182.796C2451 182.796 2355 182.796 2259 182.796C2163 182.796 2067 182.796 1971 182.796C1875 182.796 1779 182.796 1683 182.796C1587 182.796 1491 182.796 1395 182.796C1299 182.796 1203 182.796 1107 182.796C1011 182.796 915 182.796 819 182.796C723 182.796 627 182.796 531 182.796C435 182.796 339 182.796 243 182.796C147 182.796 51 182.796 3 182.796H-45V52.3286Z" fill="#2C3E50"/>
</svg>
