<svg width="1440" height="183" viewBox="0 0 1440 183" fill="none" xmlns="http://www.w3.org/2000/svg">
<path d="M-44 130.467L4 139.786C52 149.105 148 167.744 244 164.661C340 161.292 436 136.919 532 111.829C628 86.7392 724 62.3662 820 62.1512C916 62.3662 1012 86.7392 1108 99.4275C1204 111.829 1300 111.829 1396 102.51C1492 93.1909 1588 74.5527 1684 80.7893C1780 86.7392 1876 118.281 1972 114.912C2068 111.829 2164 74.5527 2260 80.7893C2356 86.7392 2452 136.919 2548 161.507C2644 186.382 2740 186.382 2836 177.063C2932 167.744 3028 149.105 3124 149.105C3220 149.105 3316 167.744 3412 155.342C3508 142.654 3604 99.6426 3700 74.5527C3796 49.4629 3892 43.728 3988 46.5955C4084 49.4629 4180 62.3662 4276 71.4703C4372 81.0044 4468 86.7392 4564 99.4275C4660 111.829 4756 130.467 4852 121.148C4948 111.829 5044 74.5527 5140 58.997C5236 43.728 5332 49.4629 5428 62.1512C5524 74.5527 5620 93.1909 5716 86.9543C5812 81.0044 5908 49.4629 6004 58.997C6100 68.1011 6196 118.281 6292 121.148C6388 124.016 6484 81.0044 6580 58.997C6676 37.2764 6772 37.2764 6820 37.2764H6868V0H6820C6772 0 6676 0 6580 0C6484 0 6388 0 6292 0C6196 0 6100 0 6004 0C5908 0 5812 0 5716 0C5620 0 5524 0 5428 0C5332 0 5236 0 5140 0C5044 0 4948 0 4852 0C4756 0 4660 0 4564 0C4468 0 4372 0 4276 0C4180 0 4084 0 3988 0C3892 0 3796 0 3700 0C3604 0 3508 0 3412 0C3316 0 3220 0 3124 0C3028 0 2932 0 2836 0C2740 0 2644 0 2548 0C2452 0 2356 0 2260 0C2164 0 2068 0 1972 0C1876 0 1780 0 1684 0C1588 0 1492 0 1396 0C1300 0 1204 0 1108 0C1012 0 916 0 820 0C724 0 628 0 532 0C436 0 340 0 244 0C148 0 52 0 4 0H-44V130.467Z" fill="#2C3E50"/>
</svg>
